<?xml version="1.0" encoding="UTF-8" standalone="no"?>
<!--DOCTYPE score-partwise PUBLIC "-//Recordare//DTD MusicXML 1.0 Partwise//EN" "/musicxml/partwise.dtd"-->
<score-partwise>
	<work><work-title>Sonata_III_TomasoAlbiononi_Adagio</work-title>
	</work>
	<identification><encoding><software>Guitar Pro 5</software>
			<encoding-description>MusicXML 1.0</encoding-description>
		</encoding>
		<miscellaneous></miscellaneous>
	</identification>
	<part-list><score-part id="P1"><part-name>Staff</part-name>
			<score-instrument id="P1-I1"><instrument-name></instrument-name>
			</score-instrument>
			<midi-instrument id="P1-I1"><midi-channel>1</midi-channel>
				<midi-program>0</midi-program>
			</midi-instrument>
		</score-part>
	</part-list>
	<part id="P1">
		<measure number="1">
			<attributes><divisions>32</divisions>
				<key><fifths>0</fifths>
					<mode>major</mode>
				</key>
				<time><beats>3</beats>
					<beat-type>4</beat-type>
				</time>
				<clef><sign>TAB</sign>
					<line>5</line>
				</clef>
				<staff-details><staff-lines>6</staff-lines>
					<staff-tuning line="6"><tuning-step>E</tuning-step>
						<tuning-octave>5</tuning-octave>
					</staff-tuning>
					<staff-tuning line="5"><tuning-step>B</tuning-step>
						<tuning-octave>4</tuning-octave>
					</staff-tuning>
					<staff-tuning line="4"><tuning-step>G</tuning-step>
						<tuning-octave>4</tuning-octave>
					</staff-tuning>
					<staff-tuning line="3"><tuning-step>D</tuning-step>
						<tuning-octave>4</tuning-octave>
					</staff-tuning>
					<staff-tuning line="2"><tuning-step>A</tuning-step>
						<tuning-octave>3</tuning-octave>
					</staff-tuning>
					<staff-tuning line="1"><tuning-step>E</tuning-step>
						<tuning-octave>3</tuning-octave>
					</staff-tuning>
				</staff-details>
			</attributes>
			<sound pan="8" tempo="86"></sound>
			<barline location="left"><bar-style>heavy-light</bar-style>
			</barline>
			<note><pitch><step>A</step>
					<octave>6</octave>
				</pitch>
				<duration>24</duration>
				<tie type="start"></tie>
				<voice>1</voice>
				<type>eighth</type>
				<dot></dot>
				<notations><dynamics><ff></ff>
					</dynamics>
					<tied type="start"></tied>
					<technical><string>1</string>
						<fret>17</fret>
					</technical>
				</notations>
			</note>
			<note><pitch><step>A</step>
					<octave>6</octave>
				</pitch>
				<duration>2</duration>
				<tie type="stop"></tie>
				<voice>1</voice>
				<type>64th</type>
				<notations><tied type="stop"></tied>
					<technical><string>1</string>
						<fret>17</fret>
					</technical>
				</notations>
			</note>
			<note><rest></rest>
				<duration>6</duration>
				<voice>1</voice>
				<type>32th</type>
				<dot></dot>
			</note>
			<note><pitch><step>D</step>
					<octave>6</octave>
				</pitch>
				<duration>24</duration>
				<tie type="start"></tie>
				<voice>1</voice>
				<type>eighth</type>
				<dot></dot>
				<notations><dynamics><ff></ff>
					</dynamics>
					<tied type="start"></tied>
					<technical><string>2</string>
						<fret>15</fret>
					</technical>
				</notations>
			</note>
			<note><pitch><step>D</step>
					<octave>6</octave>
				</pitch>
				<duration>2</duration>
				<tie type="stop"></tie>
				<voice>1</voice>
				<type>64th</type>
				<notations><tied type="stop"></tied>
					<technical><string>2</string>
						<fret>15</fret>
					</technical>
				</notations>
			</note>
			<note><rest></rest>
				<duration>6</duration>
				<voice>1</voice>
				<type>32th</type>
				<dot></dot>
			</note>
			<note><pitch><step>A</step>
					<octave>6</octave>
				</pitch>
				<duration>24</duration>
				<tie type="start"></tie>
				<voice>1</voice>
				<type>eighth</type>
				<dot></dot>
				<notations><dynamics><ff></ff>
					</dynamics>
					<tied type="start"></tied>
					<technical><string>1</string>
						<fret>17</fret>
					</technical>
				</notations>
			</note>
			<note><pitch><step>A</step>
					<octave>6</octave>
				</pitch>
				<duration>2</duration>
				<tie type="stop"></tie>
				<voice>1</voice>
				<type>64th</type>
				<notations><tied type="stop"></tied>
					<technical><string>1</string>
						<fret>17</fret>
					</technical>
				</notations>
			</note>
			<note><rest></rest>
				<duration>6</duration>
				<voice>1</voice>
				<type>32th</type>
				<dot></dot>
			</note>
		</measure>
		<measure number="2">
			<note><pitch><step>A</step>
					<alter>1</alter>
					<octave>6</octave>
				</pitch>
				<duration>24</duration>
				<tie type="start"></tie>
				<voice>1</voice>
				<type>eighth</type>
				<dot></dot>
				<notations><dynamics><ff></ff>
					</dynamics>
					<tied type="start"></tied>
					<technical><string>1</string>
						<fret>18</fret>
					</technical>
				</notations>
			</note>
			<note><pitch><step>A</step>
					<alter>1</alter>
					<octave>6</octave>
				</pitch>
				<duration>2</duration>
				<tie type="stop"></tie>
				<voice>1</voice>
				<type>64th</type>
				<notations><tied type="stop"></tied>
					<technical><string>1</string>
						<fret>18</fret>
					</technical>
				</notations>
			</note>
			<note><rest></rest>
				<duration>6</duration>
				<voice>1</voice>
				<type>32th</type>
				<dot></dot>
			</note>
			<note><pitch><step>D</step>
					<octave>6</octave>
				</pitch>
				<duration>24</duration>
				<tie type="start"></tie>
				<voice>1</voice>
				<type>eighth</type>
				<dot></dot>
				<notations><dynamics><ff></ff>
					</dynamics>
					<tied type="start"></tied>
					<technical><string>3</string>
						<fret>19</fret>
					</technical>
				</notations>
			</note>
			<note><pitch><step>D</step>
					<octave>6</octave>
				</pitch>
				<duration>2</duration>
				<tie type="stop"></tie>
				<voice>1</voice>
				<type>64th</type>
				<notations><tied type="stop"></tied>
					<technical><string>3</string>
						<fret>19</fret>
					</technical>
				</notations>
			</note>
			<note><rest></rest>
				<duration>6</duration>
				<voice>1</voice>
				<type>32th</type>
				<dot></dot>
			</note>
			<note><pitch><step>A</step>
					<alter>1</alter>
					<octave>6</octave>
				</pitch>
				<duration>24</duration>
				<tie type="start"></tie>
				<voice>1</voice>
				<type>eighth</type>
				<dot></dot>
				<notations><dynamics><ff></ff>
					</dynamics>
					<tied type="start"></tied>
					<technical><string>1</string>
						<fret>18</fret>
					</technical>
				</notations>
			</note>
			<note><pitch><step>A</step>
					<alter>1</alter>
					<octave>6</octave>
				</pitch>
				<duration>2</duration>
				<tie type="stop"></tie>
				<voice>1</voice>
				<type>64th</type>
				<notations><tied type="stop"></tied>
					<technical><string>1</string>
						<fret>18</fret>
					</technical>
				</notations>
			</note>
			<note><rest></rest>
				<duration>6</duration>
				<voice>1</voice>
				<type>32th</type>
				<dot></dot>
			</note>
		</measure>
		<measure number="3">
			<note><pitch><step>A</step>
					<octave>6</octave>
				</pitch>
				<duration>24</duration>
				<tie type="start"></tie>
				<voice>1</voice>
				<type>eighth</type>
				<dot></dot>
				<notations><dynamics><ff></ff>
					</dynamics>
					<tied type="start"></tied>
					<technical><string>1</string>
						<fret>17</fret>
					</technical>
				</notations>
			</note>
			<note><pitch><step>A</step>
					<octave>6</octave>
				</pitch>
				<duration>2</duration>
				<tie type="stop"></tie>
				<voice>1</voice>
				<type>64th</type>
				<notations><tied type="stop"></tied>
					<technical><string>1</string>
						<fret>17</fret>
					</technical>
				</notations>
			</note>
			<note><rest></rest>
				<duration>6</duration>
				<voice>1</voice>
				<type>32th</type>
				<dot></dot>
			</note>
			<note><pitch><step>D</step>
					<octave>6</octave>
				</pitch>
				<duration>24</duration>
				<tie type="start"></tie>
				<voice>1</voice>
				<type>eighth</type>
				<dot></dot>
				<notations><dynamics><ff></ff>
					</dynamics>
					<tied type="start"></tied>
					<technical><string>2</string>
						<fret>15</fret>
					</technical>
				</notations>
			</note>
			<note><pitch><step>D</step>
					<octave>6</octave>
				</pitch>
				<duration>2</duration>
				<tie type="stop"></tie>
				<voice>1</voice>
				<type>64th</type>
				<notations><tied type="stop"></tied>
					<technical><string>2</string>
						<fret>15</fret>
					</technical>
				</notations>
			</note>
			<note><rest></rest>
				<duration>6</duration>
				<voice>1</voice>
				<type>32th</type>
				<dot></dot>
			</note>
			<note><pitch><step>A</step>
					<octave>6</octave>
				</pitch>
				<duration>24</duration>
				<tie type="start"></tie>
				<voice>1</voice>
				<type>eighth</type>
				<dot></dot>
				<notations><dynamics><ff></ff>
					</dynamics>
					<tied type="start"></tied>
					<technical><string>1</string>
						<fret>17</fret>
					</technical>
				</notations>
			</note>
			<note><pitch><step>A</step>
					<octave>6</octave>
				</pitch>
				<duration>2</duration>
				<tie type="stop"></tie>
				<voice>1</voice>
				<type>64th</type>
				<notations><tied type="stop"></tied>
					<technical><string>1</string>
						<fret>17</fret>
					</technical>
				</notations>
			</note>
			<note><rest></rest>
				<duration>6</duration>
				<voice>1</voice>
				<type>32th</type>
				<dot></dot>
			</note>
		</measure>
		<measure number="4">
			<note><pitch><step>G</step>
					<octave>6</octave>
				</pitch>
				<duration>24</duration>
				<tie type="start"></tie>
				<voice>1</voice>
				<type>eighth</type>
				<dot></dot>
				<notations><dynamics><ff></ff>
					</dynamics>
					<tied type="start"></tied>
					<technical><string>1</string>
						<fret>15</fret>
					</technical>
				</notations>
			</note>
			<note><pitch><step>G</step>
					<octave>6</octave>
				</pitch>
				<duration>2</duration>
				<tie type="stop"></tie>
				<voice>1</voice>
				<type>64th</type>
				<notations><tied type="stop"></tied>
					<technical><string>1</string>
						<fret>15</fret>
					</technical>
				</notations>
			</note>
			<note><rest></rest>
				<duration>6</duration>
				<voice>1</voice>
				<type>32th</type>
				<dot></dot>
			</note>
			<note><pitch><step>C</step>
					<alter>1</alter>
					<octave>6</octave>
				</pitch>
				<duration>24</duration>
				<tie type="start"></tie>
				<voice>1</voice>
				<type>eighth</type>
				<dot></dot>
				<notations><dynamics><ff></ff>
					</dynamics>
					<tied type="start"></tied>
					<technical><string>2</string>
						<fret>14</fret>
					</technical>
				</notations>
			</note>
			<note><pitch><step>C</step>
					<alter>1</alter>
					<octave>6</octave>
				</pitch>
				<duration>2</duration>
				<tie type="stop"></tie>
				<voice>1</voice>
				<type>64th</type>
				<notations><tied type="stop"></tied>
					<technical><string>2</string>
						<fret>14</fret>
					</technical>
				</notations>
			</note>
			<note><rest></rest>
				<duration>6</duration>
				<voice>1</voice>
				<type>32th</type>
				<dot></dot>
			</note>
			<note><pitch><step>A</step>
					<octave>6</octave>
				</pitch>
				<duration>16</duration>
				<voice>1</voice>
				<type>eighth</type>
				<notations><dynamics><ff></ff>
					</dynamics>
					<technical><string>1</string>
						<fret>17</fret>
					</technical>
				</notations>
			</note>
			<note><pitch><step>G</step>
					<octave>6</octave>
				</pitch>
				<duration>16</duration>
				<voice>1</voice>
				<type>eighth</type>
				<notations><dynamics><ff></ff>
					</dynamics>
					<technical><string>1</string>
						<fret>15</fret>
					</technical>
				</notations>
			</note>
		</measure>
		<measure number="5">
			<note><pitch><step>F</step>
					<octave>6</octave>
				</pitch>
				<duration>16</duration>
				<voice>1</voice>
				<type>eighth</type>
				<notations><dynamics><ff></ff>
					</dynamics>
					<technical><string>1</string>
						<fret>13</fret>
					</technical>
				</notations>
			</note>
			<note><pitch><step>E</step>
					<octave>6</octave>
				</pitch>
				<duration>16</duration>
				<voice>1</voice>
				<type>eighth</type>
				<notations><dynamics><ff></ff>
					</dynamics>
					<technical><string>1</string>
						<fret>12</fret>
					</technical>
				</notations>
			</note>
			<note><pitch><step>D</step>
					<octave>6</octave>
				</pitch>
				<duration>24</duration>
				<tie type="start"></tie>
				<voice>1</voice>
				<type>eighth</type>
				<dot></dot>
				<notations><dynamics><ff></ff>
					</dynamics>
					<tied type="start"></tied>
					<technical><string>1</string>
						<fret>10</fret>
					</technical>
				</notations>
			</note>
			<note><pitch><step>D</step>
					<octave>6</octave>
				</pitch>
				<duration>2</duration>
				<tie type="stop"></tie>
				<voice>1</voice>
				<type>64th</type>
				<notations><tied type="stop"></tied>
					<technical><string>1</string>
						<fret>10</fret>
					</technical>
				</notations>
			</note>
			<note><rest></rest>
				<duration>6</duration>
				<voice>1</voice>
				<type>32th</type>
				<dot></dot>
			</note>
			<note><pitch><step>A</step>
					<alter>1</alter>
					<octave>6</octave>
				</pitch>
				<duration>24</duration>
				<tie type="start"></tie>
				<voice>1</voice>
				<type>eighth</type>
				<dot></dot>
				<notations><dynamics><ff></ff>
					</dynamics>
					<tied type="start"></tied>
					<technical><string>1</string>
						<fret>18</fret>
					</technical>
				</notations>
			</note>
			<note><pitch><step>A</step>
					<alter>1</alter>
					<octave>6</octave>
				</pitch>
				<duration>2</duration>
				<tie type="stop"></tie>
				<voice>1</voice>
				<type>64th</type>
				<notations><tied type="stop"></tied>
					<technical><string>1</string>
						<fret>18</fret>
					</technical>
				</notations>
			</note>
			<note><rest></rest>
				<duration>6</duration>
				<voice>1</voice>
				<type>32th</type>
				<dot></dot>
			</note>
		</measure>
		<measure number="6">
			<note><rest></rest>
				<duration>16</duration>
				<voice>1</voice>
				<type>eighth</type>
			</note>
			<note><pitch><step>G</step>
					<octave>6</octave>
				</pitch>
				<duration>16</duration>
				<voice>1</voice>
				<type>eighth</type>
				<notations><dynamics><ff></ff>
					</dynamics>
					<technical><string>1</string>
						<fret>15</fret>
					</technical>
				</notations>
			</note>
			<note><pitch><step>E</step>
					<octave>6</octave>
				</pitch>
				<duration>24</duration>
				<tie type="start"></tie>
				<voice>1</voice>
				<type>eighth</type>
				<dot></dot>
				<notations><dynamics><ff></ff>
					</dynamics>
					<tied type="start"></tied>
					<technical><string>2</string>
						<fret>17</fret>
					</technical>
				</notations>
			</note>
			<note><pitch><step>E</step>
					<octave>6</octave>
				</pitch>
				<duration>2</duration>
				<tie type="stop"></tie>
				<voice>1</voice>
				<type>64th</type>
				<notations><tied type="stop"></tied>
					<technical><string>2</string>
						<fret>17</fret>
					</technical>
				</notations>
			</note>
			<note><rest></rest>
				<duration>6</duration>
				<voice>1</voice>
				<type>32th</type>
				<dot></dot>
			</note>
			<note><pitch><step>A</step>
					<octave>6</octave>
				</pitch>
				<duration>32</duration>
				<tie type="start"></tie>
				<voice>1</voice>
				<type>quarter</type>
				<notations><dynamics><ff></ff>
					</dynamics>
					<tied type="start"></tied>
					<technical><string>1</string>
						<fret>17</fret>
					</technical>
				</notations>
			</note>
		</measure>
		<measure number="7">
			<note><pitch><step>A</step>
					<octave>6</octave>
				</pitch>
				<duration>16</duration>
				<tie type="stop"></tie>
				<voice>1</voice>
				<type>eighth</type>
				<notations><tied type="stop"></tied>
					<technical><string>1</string>
						<fret>17</fret>
					</technical>
				</notations>
			</note>
			<note><pitch><step>F</step>
					<octave>6</octave>
				</pitch>
				<duration>16</duration>
				<voice>1</voice>
				<type>eighth</type>
				<notations><dynamics><ff></ff>
					</dynamics>
					<technical><string>2</string>
						<fret>18</fret>
					</technical>
				</notations>
			</note>
			<note><pitch><step>D</step>
					<octave>6</octave>
				</pitch>
				<duration>24</duration>
				<tie type="start"></tie>
				<voice>1</voice>
				<type>eighth</type>
				<dot></dot>
				<notations><dynamics><ff></ff>
					</dynamics>
					<tied type="start"></tied>
					<technical><string>3</string>
						<fret>19</fret>
					</technical>
				</notations>
			</note>
			<note><pitch><step>D</step>
					<octave>6</octave>
				</pitch>
				<duration>2</duration>
				<tie type="stop"></tie>
				<voice>1</voice>
				<type>64th</type>
				<notations><tied type="stop"></tied>
					<technical><string>3</string>
						<fret>19</fret>
					</technical>
				</notations>
			</note>
			<note><rest></rest>
				<duration>6</duration>
				<voice>1</voice>
				<type>32th</type>
				<dot></dot>
			</note>
			<note><pitch><step>G</step>
					<octave>6</octave>
				</pitch>
				<duration>32</duration>
				<tie type="start"></tie>
				<voice>1</voice>
				<type>quarter</type>
				<notations><dynamics><ff></ff>
					</dynamics>
					<tied type="start"></tied>
					<technical><string>2</string>
						<fret>20</fret>
					</technical>
				</notations>
			</note>
		</measure>
		<measure number="8">
			<note><pitch><step>G</step>
					<octave>6</octave>
				</pitch>
				<duration>16</duration>
				<tie type="stop"></tie>
				<voice>1</voice>
				<type>eighth</type>
				<notations><tied type="stop"></tied>
					<technical><string>2</string>
						<fret>20</fret>
					</technical>
				</notations>
			</note>
			<note><pitch><step>E</step>
					<octave>6</octave>
				</pitch>
				<duration>16</duration>
				<voice>1</voice>
				<type>eighth</type>
				<notations><dynamics><ff></ff>
					</dynamics>
					<technical><string>3</string>
						<fret>21</fret>
					</technical>
				</notations>
			</note>
			<note><pitch><step>C</step>
					<alter>1</alter>
					<octave>6</octave>
				</pitch>
				<duration>16</duration>
				<voice>1</voice>
				<type>eighth</type>
				<notations><dynamics><ff></ff>
					</dynamics>
					<technical><string>3</string>
						<fret>18</fret>
					</technical>
				</notations>
			</note>
			<note><pitch><step>A</step>
					<octave>5</octave>
				</pitch>
				<duration>16</duration>
				<voice>1</voice>
				<type>eighth</type>
				<notations><dynamics><ff></ff>
					</dynamics>
					<technical><string>4</string>
						<fret>19</fret>
					</technical>
				</notations>
			</note>
			<note><pitch><step>F</step>
					<octave>6</octave>
				</pitch>
				<duration>32</duration>
				<tie type="start"></tie>
				<voice>1</voice>
				<type>quarter</type>
				<notations><dynamics><ff></ff>
					</dynamics>
					<tied type="start"></tied>
					<technical><string>2</string>
						<fret>18</fret>
					</technical>
				</notations>
			</note>
		</measure>
		<measure number="9">
			<note><pitch><step>F</step>
					<octave>6</octave>
				</pitch>
				<duration>32</duration>
				<tie type="stop"></tie>
				<tie type="start"></tie>
				<voice>1</voice>
				<type>quarter</type>
				<notations><tied type="stop"></tied>
					<tied type="start"></tied>
					<technical><string>2</string>
						<fret>18</fret>
					</technical>
				</notations>
			</note>
			<note><pitch><step>F</step>
					<octave>6</octave>
				</pitch>
				<duration>8</duration>
				<tie type="stop"></tie>
				<tie type="start"></tie>
				<voice>1</voice>
				<type>16th</type>
				<notations><tied type="stop"></tied>
					<tied type="start"></tied>
					<technical><string>2</string>
						<fret>18</fret>
					</technical>
				</notations>
			</note>
			<note><pitch><step>F</step>
					<octave>6</octave>
				</pitch>
				<duration>2</duration>
				<tie type="stop"></tie>
				<voice>1</voice>
				<type>64th</type>
				<notations><tied type="stop"></tied>
					<technical><string>2</string>
						<fret>18</fret>
					</technical>
				</notations>
			</note>
			<note><rest></rest>
				<duration>6</duration>
				<voice>1</voice>
				<type>32th</type>
				<dot></dot>
			</note>
			<note><pitch><step>D</step>
					<alter>1</alter>
					<octave>6</octave>
				</pitch>
				<duration>16</duration>
				<voice>1</voice>
				<type>eighth</type>
				<notations><dynamics><ff></ff>
					</dynamics>
					<technical><string>2</string>
						<fret>16</fret>
					</technical>
				</notations>
			</note>
			<note><pitch><step>D</step>
					<octave>6</octave>
				</pitch>
				<duration>16</duration>
				<voice>1</voice>
				<type>eighth</type>
				<notations><dynamics><ff></ff>
					</dynamics>
					<technical><string>2</string>
						<fret>15</fret>
					</technical>
				</notations>
			</note>
			<note><pitch><step>C</step>
					<alter>1</alter>
					<octave>6</octave>
				</pitch>
				<duration>16</duration>
				<voice>1</voice>
				<type>eighth</type>
				<notations><dynamics><ff></ff>
					</dynamics>
					<technical><string>2</string>
						<fret>14</fret>
					</technical>
				</notations>
			</note>
		</measure>
		<measure number="10">
			<note><pitch><step>G</step>
					<octave>6</octave>
				</pitch>
				<duration>24</duration>
				<tie type="start"></tie>
				<voice>1</voice>
				<type>eighth</type>
				<dot></dot>
				<notations><dynamics><ff></ff>
					</dynamics>
					<tied type="start"></tied>
					<technical><string>1</string>
						<fret>15</fret>
					</technical>
				</notations>
			</note>
			<note><pitch><step>G</step>
					<octave>6</octave>
				</pitch>
				<duration>2</duration>
				<tie type="stop"></tie>
				<voice>1</voice>
				<type>64th</type>
				<notations><tied type="stop"></tied>
					<technical><string>1</string>
						<fret>15</fret>
					</technical>
				</notations>
			</note>
			<note><rest></rest>
				<duration>6</duration>
				<voice>1</voice>
				<type>32th</type>
				<dot></dot>
			</note>
			<note><pitch><step>C</step>
					<alter>1</alter>
					<octave>6</octave>
				</pitch>
				<duration>24</duration>
				<tie type="start"></tie>
				<voice>1</voice>
				<type>eighth</type>
				<dot></dot>
				<notations><dynamics><ff></ff>
					</dynamics>
					<tied type="start"></tied>
					<technical><string>2</string>
						<fret>14</fret>
					</technical>
				</notations>
			</note>
			<note><pitch><step>C</step>
					<alter>1</alter>
					<octave>6</octave>
				</pitch>
				<duration>2</duration>
				<tie type="stop"></tie>
				<voice>1</voice>
				<type>64th</type>
				<notations><tied type="stop"></tied>
					<technical><string>2</string>
						<fret>14</fret>
					</technical>
				</notations>
			</note>
			<note><rest></rest>
				<duration>6</duration>
				<voice>1</voice>
				<type>32th</type>
				<dot></dot>
			</note>
			<note><pitch><step>C</step>
					<alter>1</alter>
					<octave>6</octave>
				</pitch>
				<duration>24</duration>
				<tie type="start"></tie>
				<voice>1</voice>
				<type>eighth</type>
				<dot></dot>
				<notations><dynamics><ff></ff>
					</dynamics>
					<tied type="start"></tied>
					<technical><string>2</string>
						<fret>14</fret>
					</technical>
				</notations>
			</note>
			<note><pitch><step>C</step>
					<alter>1</alter>
					<octave>6</octave>
				</pitch>
				<duration>2</duration>
				<tie type="stop"></tie>
				<voice>1</voice>
				<type>64th</type>
				<notations><tied type="stop"></tied>
					<technical><string>2</string>
						<fret>14</fret>
					</technical>
				</notations>
			</note>
			<note><rest></rest>
				<duration>6</duration>
				<voice>1</voice>
				<type>32th</type>
				<dot></dot>
			</note>
		</measure>
		<measure number="11">
			<note><pitch><step>D</step>
					<octave>6</octave>
				</pitch>
				<duration>64</duration>
				<tie type="start"></tie>
				<voice>1</voice>
				<type>half</type>
				<notations><dynamics><ff></ff>
					</dynamics>
					<tied type="start"></tied>
					<technical><string>2</string>
						<fret>15</fret>
					</technical>
				</notations>
			</note>
			<note><pitch><step>D</step>
					<octave>6</octave>
				</pitch>
				<duration>24</duration>
				<tie type="stop"></tie>
				<voice>1</voice>
				<type>eighth</type>
				<dot></dot>
				<notations><tied type="stop"></tied>
					<technical><string>2</string>
						<fret>15</fret>
					</technical>
				</notations>
			</note>
			<note><rest></rest>
				<duration>8</duration>
				<voice>1</voice>
				<type>16th</type>
			</note>
		</measure>
		<measure number="12">
			<note><rest></rest>
				<duration>32</duration>
				<voice>1</voice>
				<type>quarter</type>
			</note>
			<note><pitch><step>D</step>
					<octave>6</octave>
				</pitch>
				<duration>32</duration>
				<tie type="start"></tie>
				<voice>1</voice>
				<type>quarter</type>
				<notations><dynamics><ff></ff>
					</dynamics>
					<tied type="start"></tied>
					<technical><string>2</string>
						<fret>15</fret>
					</technical>
				</notations>
			</note>
			<note><pitch><step>D</step>
					<octave>6</octave>
				</pitch>
				<duration>12</duration>
				<tie type="stop"></tie>
				<voice>1</voice>
				<type>16th</type>
				<dot></dot>
				<notations><tied type="stop"></tied>
					<technical><string>2</string>
						<fret>15</fret>
					</technical>
				</notations>
			</note>
			<note><rest></rest>
				<duration>4</duration>
				<voice>1</voice>
				<type>32th</type>
			</note>
			<note><pitch><step>C</step>
					<alter>1</alter>
					<octave>6</octave>
				</pitch>
				<duration>16</duration>
				<voice>1</voice>
				<type>eighth</type>
				<notations><dynamics><ff></ff>
					</dynamics>
					<technical><string>2</string>
						<fret>14</fret>
					</technical>
				</notations>
			</note>
		</measure>
		<measure number="13">
			<note><pitch><step>D</step>
					<octave>6</octave>
				</pitch>
				<duration>24</duration>
				<tie type="start"></tie>
				<voice>1</voice>
				<type>eighth</type>
				<dot></dot>
				<notations><dynamics><ff></ff>
					</dynamics>
					<tied type="start"></tied>
					<technical><string>2</string>
						<fret>15</fret>
					</technical>
				</notations>
			</note>
			<note><pitch><step>D</step>
					<octave>6</octave>
				</pitch>
				<duration>2</duration>
				<tie type="stop"></tie>
				<voice>1</voice>
				<type>64th</type>
				<notations><tied type="stop"></tied>
					<technical><string>2</string>
						<fret>15</fret>
					</technical>
				</notations>
			</note>
			<note><rest></rest>
				<duration>6</duration>
				<voice>1</voice>
				<type>32th</type>
				<dot></dot>
			</note>
			<note><pitch><step>D</step>
					<octave>6</octave>
				</pitch>
				<duration>32</duration>
				<tie type="start"></tie>
				<voice>1</voice>
				<type>quarter</type>
				<notations><dynamics><ff></ff>
					</dynamics>
					<tied type="start"></tied>
					<technical><string>2</string>
						<fret>15</fret>
					</technical>
				</notations>
			</note>
			<note><pitch><step>D</step>
					<octave>6</octave>
				</pitch>
				<duration>12</duration>
				<tie type="stop"></tie>
				<voice>1</voice>
				<type>16th</type>
				<dot></dot>
				<notations><tied type="stop"></tied>
					<technical><string>2</string>
						<fret>15</fret>
					</technical>
				</notations>
			</note>
			<note><rest></rest>
				<duration>4</duration>
				<voice>1</voice>
				<type>32th</type>
			</note>
			<note><pitch><step>E</step>
					<octave>6</octave>
				</pitch>
				<duration>16</duration>
				<voice>1</voice>
				<type>eighth</type>
				<notations><dynamics><ff></ff>
					</dynamics>
					<technical><string>1</string>
						<fret>12</fret>
					</technical>
				</notations>
			</note>
		</measure>
		<measure number="14">
			<note><pitch><step>F</step>
					<octave>6</octave>
				</pitch>
				<duration>96</duration>
				<tie type="start"></tie>
				<voice>1</voice>
				<type>half</type>
				<dot></dot>
				<notations><dynamics><ff></ff>
					</dynamics>
					<tied type="start"></tied>
					<technical><string>1</string>
						<fret>13</fret>
					</technical>
				</notations>
			</note>
		</measure>
		<measure number="15">
			<note><pitch><step>F</step>
					<octave>6</octave>
				</pitch>
				<duration>24</duration>
				<tie type="stop"></tie>
				<tie type="start"></tie>
				<voice>1</voice>
				<type>eighth</type>
				<dot></dot>
				<notations><tied type="stop"></tied>
					<tied type="start"></tied>
					<technical><string>1</string>
						<fret>13</fret>
					</technical>
				</notations>
			</note>
			<note><pitch><step>F</step>
					<octave>6</octave>
				</pitch>
				<duration>2</duration>
				<tie type="stop"></tie>
				<voice>1</voice>
				<type>64th</type>
				<notations><tied type="stop"></tied>
					<technical><string>1</string>
						<fret>13</fret>
					</technical>
				</notations>
			</note>
			<note><rest></rest>
				<duration>6</duration>
				<voice>1</voice>
				<type>32th</type>
				<dot></dot>
			</note>
			<note><pitch><step>D</step>
					<alter>1</alter>
					<octave>6</octave>
				</pitch>
				<duration>16</duration>
				<voice>1</voice>
				<type>eighth</type>
				<notations><dynamics><ff></ff>
					</dynamics>
					<technical><string>1</string>
						<fret>11</fret>
					</technical>
				</notations>
			</note>
			<note><pitch><step>F</step>
					<octave>6</octave>
				</pitch>
				<duration>16</duration>
				<voice>1</voice>
				<type>eighth</type>
				<notations><dynamics><ff></ff>
					</dynamics>
					<technical><string>1</string>
						<fret>13</fret>
					</technical>
				</notations>
			</note>
			<note><pitch><step>G</step>
					<octave>6</octave>
				</pitch>
				<duration>16</duration>
				<voice>1</voice>
				<type>eighth</type>
				<notations><dynamics><ff></ff>
					</dynamics>
					<technical><string>1</string>
						<fret>15</fret>
					</technical>
				</notations>
			</note>
			<note><pitch><step>G</step>
					<alter>1</alter>
					<octave>6</octave>
				</pitch>
				<duration>16</duration>
				<voice>1</voice>
				<type>eighth</type>
				<notations><dynamics><ff></ff>
					</dynamics>
					<technical><string>1</string>
						<fret>16</fret>
					</technical>
				</notations>
			</note>
		</measure>
		<measure number="16">
			<note><pitch><step>F</step>
					<octave>6</octave>
				</pitch>
				<duration>16</duration>
				<voice>1</voice>
				<type>eighth</type>
				<notations><dynamics><ff></ff>
					</dynamics>
					<technical><string>1</string>
						<fret>13</fret>
					</technical>
				</notations>
			</note>
			<note><pitch><step>D</step>
					<alter>1</alter>
					<octave>6</octave>
				</pitch>
				<duration>16</duration>
				<voice>1</voice>
				<type>eighth</type>
				<notations><dynamics><ff></ff>
					</dynamics>
					<technical><string>1</string>
						<fret>11</fret>
					</technical>
				</notations>
			</note>
			<note><pitch><step>D</step>
					<octave>6</octave>
				</pitch>
				<duration>32</duration>
				<tie type="start"></tie>
				<voice>1</voice>
				<type>quarter</type>
				<notations><dynamics><ff></ff>
					</dynamics>
					<tied type="start"></tied>
					<technical><string>1</string>
						<fret>10</fret>
					</technical>
				</notations>
			</note>
			<note><pitch><step>D</step>
					<octave>6</octave>
				</pitch>
				<duration>12</duration>
				<tie type="stop"></tie>
				<voice>1</voice>
				<type>16th</type>
				<dot></dot>
				<notations><tied type="stop"></tied>
					<technical><string>1</string>
						<fret>10</fret>
					</technical>
				</notations>
			</note>
			<note><rest></rest>
				<duration>4</duration>
				<voice>1</voice>
				<type>32th</type>
			</note>
			<note><pitch><step>C</step>
					<octave>6</octave>
				</pitch>
				<duration>16</duration>
				<voice>1</voice>
				<type>eighth</type>
				<notations><dynamics><ff></ff>
					</dynamics>
					<technical><string>1</string>
						<fret>8</fret>
					</technical>
				</notations>
			</note>
		</measure>
		<measure number="17">
			<note><pitch><step>C</step>
					<octave>6</octave>
				</pitch>
				<duration>24</duration>
				<tie type="start"></tie>
				<voice>1</voice>
				<type>eighth</type>
				<dot></dot>
				<notations><dynamics><ff></ff>
					</dynamics>
					<tied type="start"></tied>
					<technical><string>1</string>
						<fret>8</fret>
					</technical>
				</notations>
			</note>
			<note><pitch><step>C</step>
					<octave>6</octave>
				</pitch>
				<duration>2</duration>
				<tie type="stop"></tie>
				<voice>1</voice>
				<type>64th</type>
				<notations><tied type="stop"></tied>
					<technical><string>1</string>
						<fret>8</fret>
					</technical>
				</notations>
			</note>
			<note><rest></rest>
				<duration>6</duration>
				<voice>1</voice>
				<type>32th</type>
				<dot></dot>
			</note>
			<note><pitch><step>C</step>
					<octave>6</octave>
				</pitch>
				<duration>32</duration>
				<tie type="start"></tie>
				<voice>1</voice>
				<type>quarter</type>
				<notations><dynamics><ff></ff>
					</dynamics>
					<tied type="start"></tied>
					<technical><string>1</string>
						<fret>8</fret>
					</technical>
				</notations>
			</note>
			<note><pitch><step>C</step>
					<octave>6</octave>
				</pitch>
				<duration>12</duration>
				<tie type="stop"></tie>
				<voice>1</voice>
				<type>16th</type>
				<dot></dot>
				<notations><tied type="stop"></tied>
					<technical><string>1</string>
						<fret>8</fret>
					</technical>
				</notations>
			</note>
			<note><rest></rest>
				<duration>4</duration>
				<voice>1</voice>
				<type>32th</type>
			</note>
			<note><pitch><step>D</step>
					<octave>6</octave>
				</pitch>
				<duration>16</duration>
				<voice>1</voice>
				<type>eighth</type>
				<notations><dynamics><ff></ff>
					</dynamics>
					<technical><string>1</string>
						<fret>10</fret>
					</technical>
				</notations>
			</note>
		</measure>
		<measure number="18">
			<note><pitch><step>D</step>
					<alter>1</alter>
					<octave>6</octave>
				</pitch>
				<duration>96</duration>
				<tie type="start"></tie>
				<voice>1</voice>
				<type>half</type>
				<dot></dot>
				<notations><dynamics><ff></ff>
					</dynamics>
					<tied type="start"></tied>
					<technical><string>1</string>
						<fret>11</fret>
					</technical>
				</notations>
			</note>
		</measure>
		<measure number="19">
			<note><pitch><step>D</step>
					<alter>1</alter>
					<octave>6</octave>
				</pitch>
				<duration>24</duration>
				<tie type="stop"></tie>
				<tie type="start"></tie>
				<voice>1</voice>
				<type>eighth</type>
				<dot></dot>
				<notations><tied type="stop"></tied>
					<tied type="start"></tied>
					<technical><string>1</string>
						<fret>11</fret>
					</technical>
				</notations>
			</note>
			<note><pitch><step>D</step>
					<alter>1</alter>
					<octave>6</octave>
				</pitch>
				<duration>2</duration>
				<tie type="stop"></tie>
				<voice>1</voice>
				<type>64th</type>
				<notations><tied type="stop"></tied>
					<technical><string>1</string>
						<fret>11</fret>
					</technical>
				</notations>
			</note>
			<note><rest></rest>
				<duration>6</duration>
				<voice>1</voice>
				<type>32th</type>
				<dot></dot>
			</note>
			<note><pitch><step>D</step>
					<octave>6</octave>
				</pitch>
				<duration>32</duration>
				<tie type="start"></tie>
				<voice>1</voice>
				<type>quarter</type>
				<notations><dynamics><ff></ff>
					</dynamics>
					<tied type="start"></tied>
					<technical><string>1</string>
						<fret>10</fret>
					</technical>
				</notations>
			</note>
			<note><pitch><step>D</step>
					<octave>6</octave>
				</pitch>
				<duration>12</duration>
				<tie type="stop"></tie>
				<voice>1</voice>
				<type>16th</type>
				<dot></dot>
				<notations><tied type="stop"></tied>
					<technical><string>1</string>
						<fret>10</fret>
					</technical>
				</notations>
			</note>
			<note><rest></rest>
				<duration>4</duration>
				<voice>1</voice>
				<type>32th</type>
			</note>
			<note><pitch><step>E</step>
					<octave>6</octave>
				</pitch>
				<duration>16</duration>
				<voice>1</voice>
				<type>eighth</type>
				<notations><dynamics><ff></ff>
					</dynamics>
					<technical><string>1</string>
						<fret>12</fret>
					</technical>
				</notations>
			</note>
		</measure>
		<measure number="20">
			<note><pitch><step>F</step>
					<octave>6</octave>
				</pitch>
				<duration>96</duration>
				<tie type="start"></tie>
				<voice>1</voice>
				<type>half</type>
				<dot></dot>
				<notations><dynamics><ff></ff>
					</dynamics>
					<tied type="start"></tied>
					<technical><string>1</string>
						<fret>13</fret>
					</technical>
				</notations>
			</note>
		</measure>
		<measure number="21">
			<note><pitch><step>F</step>
					<octave>6</octave>
				</pitch>
				<duration>24</duration>
				<tie type="stop"></tie>
				<tie type="start"></tie>
				<voice>1</voice>
				<type>eighth</type>
				<dot></dot>
				<notations><tied type="stop"></tied>
					<tied type="start"></tied>
					<technical><string>1</string>
						<fret>13</fret>
					</technical>
				</notations>
			</note>
			<note><pitch><step>F</step>
					<octave>6</octave>
				</pitch>
				<duration>2</duration>
				<tie type="stop"></tie>
				<voice>1</voice>
				<type>64th</type>
				<notations><tied type="stop"></tied>
					<technical><string>1</string>
						<fret>13</fret>
					</technical>
				</notations>
			</note>
			<note><rest></rest>
				<duration>6</duration>
				<voice>1</voice>
				<type>32th</type>
				<dot></dot>
			</note>
			<note><pitch><step>D</step>
					<alter>1</alter>
					<octave>6</octave>
				</pitch>
				<duration>24</duration>
				<tie type="start"></tie>
				<voice>1</voice>
				<type>eighth</type>
				<dot></dot>
				<notations><dynamics><ff></ff>
					</dynamics>
					<tied type="start"></tied>
					<technical><string>1</string>
						<fret>11</fret>
					</technical>
				</notations>
			</note>
			<note><pitch><step>D</step>
					<alter>1</alter>
					<octave>6</octave>
				</pitch>
				<duration>2</duration>
				<tie type="stop"></tie>
				<voice>1</voice>
				<type>64th</type>
				<notations><tied type="stop"></tied>
					<technical><string>1</string>
						<fret>11</fret>
					</technical>
				</notations>
			</note>
			<note><rest></rest>
				<duration>6</duration>
				<voice>1</voice>
				<type>32th</type>
				<dot></dot>
			</note>
			<note><pitch><step>A</step>
					<alter>1</alter>
					<octave>6</octave>
				</pitch>
				<duration>32</duration>
				<tie type="start"></tie>
				<voice>1</voice>
				<type>quarter</type>
				<notations><dynamics><ff></ff>
					</dynamics>
					<tied type="start"></tied>
					<technical><string>1</string>
						<fret>18</fret>
					</technical>
				</notations>
			</note>
		</measure>
		<measure number="22">
			<note><pitch><step>A</step>
					<alter>1</alter>
					<octave>6</octave>
				</pitch>
				<duration>24</duration>
				<tie type="stop"></tie>
				<tie type="start"></tie>
				<voice>1</voice>
				<type>eighth</type>
				<dot></dot>
				<notations><tied type="stop"></tied>
					<tied type="start"></tied>
					<technical><string>1</string>
						<fret>18</fret>
					</technical>
				</notations>
			</note>
			<note><pitch><step>A</step>
					<alter>1</alter>
					<octave>6</octave>
				</pitch>
				<duration>2</duration>
				<tie type="stop"></tie>
				<voice>1</voice>
				<type>64th</type>
				<notations><tied type="stop"></tied>
					<technical><string>1</string>
						<fret>18</fret>
					</technical>
				</notations>
			</note>
			<note><rest></rest>
				<duration>6</duration>
				<voice>1</voice>
				<type>32th</type>
				<dot></dot>
			</note>
			<note><pitch><step>A</step>
					<octave>6</octave>
				</pitch>
				<duration>24</duration>
				<tie type="start"></tie>
				<voice>1</voice>
				<type>eighth</type>
				<dot></dot>
				<notations><dynamics><ff></ff>
					</dynamics>
					<tied type="start"></tied>
					<technical><string>1</string>
						<fret>17</fret>
					</technical>
				</notations>
			</note>
			<note><pitch><step>A</step>
					<octave>6</octave>
				</pitch>
				<duration>2</duration>
				<tie type="stop"></tie>
				<voice>1</voice>
				<type>64th</type>
				<notations><tied type="stop"></tied>
					<technical><string>1</string>
						<fret>17</fret>
					</technical>
				</notations>
			</note>
			<note><rest></rest>
				<duration>6</duration>
				<voice>1</voice>
				<type>32th</type>
				<dot></dot>
			</note>
			<note><pitch><step>C</step>
					<alter>1</alter>
					<octave>7</octave>
				</pitch>
				<duration>24</duration>
				<tie type="start"></tie>
				<voice>1</voice>
				<type>eighth</type>
				<dot></dot>
				<notations><dynamics><ff></ff>
					</dynamics>
					<tied type="start"></tied>
					<technical><string>1</string>
						<fret>21</fret>
					</technical>
				</notations>
			</note>
			<note><pitch><step>C</step>
					<alter>1</alter>
					<octave>7</octave>
				</pitch>
				<duration>2</duration>
				<tie type="stop"></tie>
				<voice>1</voice>
				<type>64th</type>
				<notations><tied type="stop"></tied>
					<technical><string>1</string>
						<fret>21</fret>
					</technical>
				</notations>
			</note>
			<note><rest></rest>
				<duration>6</duration>
				<voice>1</voice>
				<type>32th</type>
				<dot></dot>
			</note>
		</measure>
		<measure number="23">
			<note><pitch><step>D</step>
					<octave>7</octave>
				</pitch>
				<duration>16</duration>
				<voice>1</voice>
				<type>eighth</type>
				<notations><dynamics><ff></ff>
					</dynamics>
					<technical><string>1</string>
						<fret>22</fret>
					</technical>
				</notations>
			</note>
			<note><pitch><step>D</step>
					<alter>1</alter>
					<octave>6</octave>
				</pitch>
				<duration>16</duration>
				<voice>1</voice>
				<type>eighth</type>
				<notations><dynamics><ff></ff>
					</dynamics>
					<technical><string>3</string>
						<fret>20</fret>
					</technical>
				</notations>
			</note>
			<note><pitch><step>D</step>
					<alter>1</alter>
					<octave>6</octave>
				</pitch>
				<duration>32</duration>
				<tie type="start"></tie>
				<voice>1</voice>
				<type>quarter</type>
				<notations><dynamics><ff></ff>
					</dynamics>
					<tied type="start"></tied>
					<technical><string>3</string>
						<fret>20</fret>
					</technical>
				</notations>
			</note>
			<note><pitch><step>D</step>
					<alter>1</alter>
					<octave>6</octave>
				</pitch>
				<duration>12</duration>
				<tie type="stop"></tie>
				<voice>1</voice>
				<type>16th</type>
				<dot></dot>
				<notations><tied type="stop"></tied>
					<technical><string>3</string>
						<fret>20</fret>
					</technical>
				</notations>
			</note>
			<note><rest></rest>
				<duration>4</duration>
				<voice>1</voice>
				<type>32th</type>
			</note>
			<note><pitch><step>D</step>
					<octave>6</octave>
				</pitch>
				<duration>16</duration>
				<voice>1</voice>
				<type>eighth</type>
				<notations><dynamics><ff></ff>
					</dynamics>
					<technical><string>3</string>
						<fret>19</fret>
					</technical>
				</notations>
			</note>
		</measure>
		<measure number="24">
			<note><pitch><step>A</step>
					<alter>1</alter>
					<octave>6</octave>
				</pitch>
				<duration>32</duration>
				<tie type="start"></tie>
				<voice>1</voice>
				<type>quarter</type>
				<notations><dynamics><ff></ff>
					</dynamics>
					<tied type="start"></tied>
					<technical><string>1</string>
						<fret>18</fret>
					</technical>
				</notations>
			</note>
			<note><pitch><step>A</step>
					<alter>1</alter>
					<octave>6</octave>
				</pitch>
				<duration>12</duration>
				<tie type="stop"></tie>
				<voice>1</voice>
				<type>16th</type>
				<dot></dot>
				<notations><tied type="stop"></tied>
					<technical><string>1</string>
						<fret>18</fret>
					</technical>
				</notations>
			</note>
			<note><rest></rest>
				<duration>4</duration>
				<voice>1</voice>
				<type>32th</type>
			</note>
			<note><pitch><step>A</step>
					<octave>6</octave>
				</pitch>
				<duration>16</duration>
				<voice>1</voice>
				<type>eighth</type>
				<notations><dynamics><ff></ff>
					</dynamics>
					<technical><string>1</string>
						<fret>17</fret>
					</technical>
				</notations>
			</note>
			<note><pitch><step>G</step>
					<alter>1</alter>
					<octave>6</octave>
				</pitch>
				<duration>24</duration>
				<tie type="start"></tie>
				<voice>1</voice>
				<type>eighth</type>
				<dot></dot>
				<notations><dynamics><ff></ff>
					</dynamics>
					<tied type="start"></tied>
					<technical><string>1</string>
						<fret>16</fret>
					</technical>
				</notations>
			</note>
			<note><pitch><step>G</step>
					<alter>1</alter>
					<octave>6</octave>
				</pitch>
				<duration>2</duration>
				<tie type="stop"></tie>
				<voice>1</voice>
				<type>64th</type>
				<notations><tied type="stop"></tied>
					<technical><string>1</string>
						<fret>16</fret>
					</technical>
				</notations>
			</note>
			<note><rest></rest>
				<duration>6</duration>
				<voice>1</voice>
				<type>32th</type>
				<dot></dot>
			</note>
		</measure>
		<measure number="25">
			<note><pitch><step>A</step>
					<octave>6</octave>
				</pitch>
				<duration>96</duration>
				<tie type="start"></tie>
				<voice>1</voice>
				<type>half</type>
				<dot></dot>
				<notations><dynamics><ff></ff>
					</dynamics>
					<tied type="start"></tied>
					<technical><string>1</string>
						<fret>17</fret>
					</technical>
				</notations>
			</note>
		</measure>
		<measure number="26">
			<note><pitch><step>A</step>
					<octave>6</octave>
				</pitch>
				<duration>32</duration>
				<tie type="stop"></tie>
				<tie type="start"></tie>
				<voice>1</voice>
				<type>quarter</type>
				<notations><tied type="stop"></tied>
					<tied type="start"></tied>
					<technical><string>1</string>
						<fret>17</fret>
					</technical>
				</notations>
			</note>
			<note><pitch><step>A</step>
					<octave>6</octave>
				</pitch>
				<duration>8</duration>
				<tie type="stop"></tie>
				<tie type="start"></tie>
				<voice>1</voice>
				<type>16th</type>
				<notations><tied type="stop"></tied>
					<tied type="start"></tied>
					<technical><string>1</string>
						<fret>17</fret>
					</technical>
				</notations>
			</note>
			<note><pitch><step>A</step>
					<octave>6</octave>
				</pitch>
				<duration>2</duration>
				<tie type="stop"></tie>
				<voice>1</voice>
				<type>64th</type>
				<notations><tied type="stop"></tied>
					<technical><string>1</string>
						<fret>17</fret>
					</technical>
				</notations>
			</note>
			<note><rest></rest>
				<duration>6</duration>
				<voice>1</voice>
				<type>32th</type>
				<dot></dot>
			</note>
			<note><pitch><step>G</step>
					<octave>6</octave>
				</pitch>
				<duration>16</duration>
				<voice>1</voice>
				<type>eighth</type>
				<notations><dynamics><ff></ff>
					</dynamics>
					<technical><string>1</string>
						<fret>15</fret>
					</technical>
				</notations>
			</note>
			<note><pitch><step>F</step>
					<octave>6</octave>
				</pitch>
				<duration>16</duration>
				<voice>1</voice>
				<type>eighth</type>
				<notations><dynamics><ff></ff>
					</dynamics>
					<technical><string>1</string>
						<fret>13</fret>
					</technical>
				</notations>
			</note>
			<note><pitch><step>E</step>
					<octave>6</octave>
				</pitch>
				<duration>16</duration>
				<voice>1</voice>
				<type>eighth</type>
				<notations><dynamics><ff></ff>
					</dynamics>
					<technical><string>1</string>
						<fret>12</fret>
					</technical>
				</notations>
			</note>
		</measure>
		<measure number="27">
			<note><pitch><step>F</step>
					<octave>6</octave>
				</pitch>
				<duration>16</duration>
				<voice>1</voice>
				<type>eighth</type>
				<notations><dynamics><ff></ff>
					</dynamics>
					<technical><string>1</string>
						<fret>13</fret>
					</technical>
				</notations>
			</note>
			<note><pitch><step>G</step>
					<octave>6</octave>
				</pitch>
				<duration>16</duration>
				<voice>1</voice>
				<type>eighth</type>
				<notations><dynamics><ff></ff>
					</dynamics>
					<technical><string>1</string>
						<fret>15</fret>
					</technical>
				</notations>
			</note>
			<note><pitch><step>E</step>
					<octave>6</octave>
				</pitch>
				<duration>32</duration>
				<tie type="start"></tie>
				<voice>1</voice>
				<type>quarter</type>
				<notations><dynamics><ff></ff>
					</dynamics>
					<tied type="start"></tied>
					<technical><string>1</string>
						<fret>12</fret>
					</technical>
				</notations>
			</note>
			<note><pitch><step>E</step>
					<octave>6</octave>
				</pitch>
				<duration>12</duration>
				<tie type="stop"></tie>
				<voice>1</voice>
				<type>16th</type>
				<dot></dot>
				<notations><tied type="stop"></tied>
					<technical><string>1</string>
						<fret>12</fret>
					</technical>
				</notations>
			</note>
			<note><rest></rest>
				<duration>4</duration>
				<voice>1</voice>
				<type>32th</type>
			</note>
			<note><pitch><step>D</step>
					<octave>6</octave>
				</pitch>
				<duration>16</duration>
				<voice>1</voice>
				<type>eighth</type>
				<notations><dynamics><ff></ff>
					</dynamics>
					<technical><string>1</string>
						<fret>10</fret>
					</technical>
				</notations>
			</note>
		</measure>
		<measure number="28">
			<note><pitch><step>D</step>
					<octave>6</octave>
				</pitch>
				<duration>48</duration>
				<tie type="start"></tie>
				<voice>1</voice>
				<type>quarter</type>
				<dot></dot>
				<notations><dynamics><ff></ff>
					</dynamics>
					<tied type="start"></tied>
					<technical><string>1</string>
						<fret>10</fret>
					</technical>
				</notations>
			</note>
			<note><pitch><step>D</step>
					<octave>6</octave>
				</pitch>
				<duration>8</duration>
				<tie type="stop"></tie>
				<voice>1</voice>
				<type>16th</type>
				<notations><tied type="stop"></tied>
					<technical><string>1</string>
						<fret>10</fret>
					</technical>
				</notations>
			</note>
			<note><rest></rest>
				<duration>32</duration>
				<voice>1</voice>
				<type>quarter</type>
			</note>
			<note><rest></rest>
				<duration>8</duration>
				<voice>1</voice>
				<type>16th</type>
			</note>
		</measure>
		<measure number="29">
			<note><pitch><step>A</step>
					<octave>6</octave>
				</pitch>
				<duration>96</duration>
				<tie type="start"></tie>
				<voice>1</voice>
				<type>half</type>
				<dot></dot>
				<notations><dynamics><ff></ff>
					</dynamics>
					<tied type="start"></tied>
					<technical><string>1</string>
						<fret>17</fret>
					</technical>
				</notations>
			</note>
		</measure>
		<measure number="30">
			<note><pitch><step>A</step>
					<octave>6</octave>
				</pitch>
				<duration>24</duration>
				<tie type="stop"></tie>
				<tie type="start"></tie>
				<voice>1</voice>
				<type>eighth</type>
				<dot></dot>
				<notations><tied type="stop"></tied>
					<tied type="start"></tied>
					<technical><string>1</string>
						<fret>17</fret>
					</technical>
				</notations>
			</note>
			<note><pitch><step>A</step>
					<octave>6</octave>
				</pitch>
				<duration>2</duration>
				<tie type="stop"></tie>
				<voice>1</voice>
				<type>64th</type>
				<notations><tied type="stop"></tied>
					<technical><string>1</string>
						<fret>17</fret>
					</technical>
				</notations>
			</note>
			<note><rest></rest>
				<duration>6</duration>
				<voice>1</voice>
				<type>32th</type>
				<dot></dot>
			</note>
			<note><pitch><step>G</step>
					<octave>6</octave>
				</pitch>
				<duration>24</duration>
				<tie type="start"></tie>
				<voice>1</voice>
				<type>eighth</type>
				<dot></dot>
				<notations><dynamics><ff></ff>
					</dynamics>
					<tied type="start"></tied>
					<technical><string>1</string>
						<fret>15</fret>
					</technical>
				</notations>
			</note>
			<note><pitch><step>G</step>
					<octave>6</octave>
				</pitch>
				<duration>2</duration>
				<tie type="stop"></tie>
				<voice>1</voice>
				<type>64th</type>
				<notations><tied type="stop"></tied>
					<technical><string>1</string>
						<fret>15</fret>
					</technical>
				</notations>
			</note>
			<note><rest></rest>
				<duration>6</duration>
				<voice>1</voice>
				<type>32th</type>
				<dot></dot>
			</note>
			<note><pitch><step>G</step>
					<alter>1</alter>
					<octave>6</octave>
				</pitch>
				<duration>24</duration>
				<tie type="start"></tie>
				<voice>1</voice>
				<type>eighth</type>
				<dot></dot>
				<notations><dynamics><ff></ff>
					</dynamics>
					<tied type="start"></tied>
					<technical><string>1</string>
						<fret>16</fret>
					</technical>
				</notations>
			</note>
			<note><pitch><step>G</step>
					<alter>1</alter>
					<octave>6</octave>
				</pitch>
				<duration>2</duration>
				<tie type="stop"></tie>
				<voice>1</voice>
				<type>64th</type>
				<notations><tied type="stop"></tied>
					<technical><string>1</string>
						<fret>16</fret>
					</technical>
				</notations>
			</note>
			<note><rest></rest>
				<duration>6</duration>
				<voice>1</voice>
				<type>32th</type>
				<dot></dot>
			</note>
		</measure>
		<measure number="31">
			<barline><bar-style>light-heavy</bar-style>
			</barline>
			<note><pitch><step>A</step>
					<octave>6</octave>
				</pitch>
				<duration>64</duration>
				<tie type="start"></tie>
				<voice>1</voice>
				<type>half</type>
				<notations><dynamics><ff></ff>
					</dynamics>
					<tied type="start"></tied>
					<technical><string>1</string>
						<fret>17</fret>
					</technical>
				</notations>
			</note>
			<note><pitch><step>A</step>
					<octave>6</octave>
				</pitch>
				<duration>24</duration>
				<tie type="stop"></tie>
				<voice>1</voice>
				<type>eighth</type>
				<dot></dot>
				<notations><tied type="stop"></tied>
					<technical><string>1</string>
						<fret>17</fret>
					</technical>
				</notations>
			</note>
			<note><rest></rest>
				<duration>8</duration>
				<voice>1</voice>
				<type>16th</type>
			</note>
		</measure>
	</part>
</score-partwise>
