<?xml version="1.0" encoding="ISO-8859-1"?>
<!DOCTYPE MIDIFile PUBLIC
  "-//Recordare//DTD MusicXML 0.9 MIDI//EN"
  "http://www.musicxml.org/dtds/midixml.dtd">
<MIDIFile>
<Format>1</Format>
<TrackCount>2</TrackCount>
<TicksPerBeat>960</TicksPerBeat>
<TimestampType>Absolute</TimestampType>
<Track Number="0">
  <Event>
    <Absolute>0</Absolute>
    <ControlChange Channel="1" Control="101" Value="0"/>
  </Event>
  <Event>
    <Absolute>0</Absolute>
    <ControlChange Channel="1" Control="100" Value="0"/>
  </Event>
  <Event>
    <Absolute>0</Absolute>
    <ControlChange Channel="1" Control="6" Value="12"/>
  </Event>
  <Event>
    <Absolute>0</Absolute>
    <ControlChange Channel="1" Control="38" Value="0"/>
  </Event>
  <Event>
    <Absolute>0</Absolute>
    <ControlChange Channel="2" Control="101" Value="0"/>
  </Event>
  <Event>
    <Absolute>0</Absolute>
    <ControlChange Channel="2" Control="100" Value="0"/>
  </Event>
  <Event>
    <Absolute>0</Absolute>
    <ControlChange Channel="2" Control="6" Value="12"/>
  </Event>
  <Event>
    <Absolute>0</Absolute>
    <ControlChange Channel="2" Control="38" Value="0"/>
  </Event>
  <Event>
    <Absolute>0</Absolute>
    <ControlChange Channel="3" Control="101" Value="0"/>
  </Event>
  <Event>
    <Absolute>0</Absolute>
    <ControlChange Channel="3" Control="100" Value="0"/>
  </Event>
  <Event>
    <Absolute>0</Absolute>
    <ControlChange Channel="3" Control="6" Value="12"/>
  </Event>
  <Event>
    <Absolute>0</Absolute>
    <ControlChange Channel="3" Control="38" Value="0"/>
  </Event>
  <Event>
    <Absolute>0</Absolute>
    <ControlChange Channel="4" Control="101" Value="0"/>
  </Event>
  <Event>
    <Absolute>0</Absolute>
    <ControlChange Channel="4" Control="100" Value="0"/>
  </Event>
  <Event>
    <Absolute>0</Absolute>
    <ControlChange Channel="4" Control="6" Value="12"/>
  </Event>
  <Event>
    <Absolute>0</Absolute>
    <ControlChange Channel="4" Control="38" Value="0"/>
  </Event>
  <Event>
    <Absolute>0</Absolute>
    <ControlChange Channel="5" Control="101" Value="0"/>
  </Event>
  <Event>
    <Absolute>0</Absolute>
    <ControlChange Channel="5" Control="100" Value="0"/>
  </Event>
  <Event>
    <Absolute>0</Absolute>
    <ControlChange Channel="5" Control="6" Value="12"/>
  </Event>
  <Event>
    <Absolute>0</Absolute>
    <ControlChange Channel="5" Control="38" Value="0"/>
  </Event>
  <Event>
    <Absolute>0</Absolute>
    <ControlChange Channel="6" Control="101" Value="0"/>
  </Event>
  <Event>
    <Absolute>0</Absolute>
    <ControlChange Channel="6" Control="100" Value="0"/>
  </Event>
  <Event>
    <Absolute>0</Absolute>
    <ControlChange Channel="6" Control="6" Value="12"/>
  </Event>
  <Event>
    <Absolute>0</Absolute>
    <ControlChange Channel="6" Control="38" Value="0"/>
  </Event>
  <Event>
    <Absolute>0</Absolute>
    <ControlChange Channel="7" Control="101" Value="0"/>
  </Event>
  <Event>
    <Absolute>0</Absolute>
    <ControlChange Channel="7" Control="100" Value="0"/>
  </Event>
  <Event>
    <Absolute>0</Absolute>
    <ControlChange Channel="7" Control="6" Value="12"/>
  </Event>
  <Event>
    <Absolute>0</Absolute>
    <ControlChange Channel="7" Control="38" Value="0"/>
  </Event>
  <Event>
    <Absolute>0</Absolute>
    <ControlChange Channel="8" Control="101" Value="0"/>
  </Event>
  <Event>
    <Absolute>0</Absolute>
    <ControlChange Channel="8" Control="100" Value="0"/>
  </Event>
  <Event>
    <Absolute>0</Absolute>
    <ControlChange Channel="8" Control="6" Value="12"/>
  </Event>
  <Event>
    <Absolute>0</Absolute>
    <ControlChange Channel="8" Control="38" Value="0"/>
  </Event>
  <Event>
    <Absolute>0</Absolute>
    <ControlChange Channel="9" Control="101" Value="0"/>
  </Event>
  <Event>
    <Absolute>0</Absolute>
    <ControlChange Channel="9" Control="100" Value="0"/>
  </Event>
  <Event>
    <Absolute>0</Absolute>
    <ControlChange Channel="9" Control="6" Value="12"/>
  </Event>
  <Event>
    <Absolute>0</Absolute>
    <ControlChange Channel="9" Control="38" Value="0"/>
  </Event>
  <Event>
    <Absolute>0</Absolute>
    <ControlChange Channel="10" Control="101" Value="0"/>
  </Event>
  <Event>
    <Absolute>0</Absolute>
    <ControlChange Channel="10" Control="100" Value="0"/>
  </Event>
  <Event>
    <Absolute>0</Absolute>
    <ControlChange Channel="10" Control="6" Value="12"/>
  </Event>
  <Event>
    <Absolute>0</Absolute>
    <ControlChange Channel="10" Control="38" Value="0"/>
  </Event>
  <Event>
    <Absolute>0</Absolute>
    <ControlChange Channel="11" Control="101" Value="0"/>
  </Event>
  <Event>
    <Absolute>0</Absolute>
    <ControlChange Channel="11" Control="100" Value="0"/>
  </Event>
  <Event>
    <Absolute>0</Absolute>
    <ControlChange Channel="11" Control="6" Value="12"/>
  </Event>
  <Event>
    <Absolute>0</Absolute>
    <ControlChange Channel="11" Control="38" Value="0"/>
  </Event>
  <Event>
    <Absolute>0</Absolute>
    <ControlChange Channel="12" Control="101" Value="0"/>
  </Event>
  <Event>
    <Absolute>0</Absolute>
    <ControlChange Channel="12" Control="100" Value="0"/>
  </Event>
  <Event>
    <Absolute>0</Absolute>
    <ControlChange Channel="12" Control="6" Value="12"/>
  </Event>
  <Event>
    <Absolute>0</Absolute>
    <ControlChange Channel="12" Control="38" Value="0"/>
  </Event>
  <Event>
    <Absolute>0</Absolute>
    <ControlChange Channel="13" Control="101" Value="0"/>
  </Event>
  <Event>
    <Absolute>0</Absolute>
    <ControlChange Channel="13" Control="100" Value="0"/>
  </Event>
  <Event>
    <Absolute>0</Absolute>
    <ControlChange Channel="13" Control="6" Value="12"/>
  </Event>
  <Event>
    <Absolute>0</Absolute>
    <ControlChange Channel="13" Control="38" Value="0"/>
  </Event>
  <Event>
    <Absolute>0</Absolute>
    <ControlChange Channel="14" Control="101" Value="0"/>
  </Event>
  <Event>
    <Absolute>0</Absolute>
    <ControlChange Channel="14" Control="100" Value="0"/>
  </Event>
  <Event>
    <Absolute>0</Absolute>
    <ControlChange Channel="14" Control="6" Value="12"/>
  </Event>
  <Event>
    <Absolute>0</Absolute>
    <ControlChange Channel="14" Control="38" Value="0"/>
  </Event>
  <Event>
    <Absolute>0</Absolute>
    <ControlChange Channel="15" Control="101" Value="0"/>
  </Event>
  <Event>
    <Absolute>0</Absolute>
    <ControlChange Channel="15" Control="100" Value="0"/>
  </Event>
  <Event>
    <Absolute>0</Absolute>
    <ControlChange Channel="15" Control="6" Value="12"/>
  </Event>
  <Event>
    <Absolute>0</Absolute>
    <ControlChange Channel="15" Control="38" Value="0"/>
  </Event>
  <Event>
    <Absolute>0</Absolute>
    <ControlChange Channel="16" Control="101" Value="0"/>
  </Event>
  <Event>
    <Absolute>0</Absolute>
    <ControlChange Channel="16" Control="100" Value="0"/>
  </Event>
  <Event>
    <Absolute>0</Absolute>
    <ControlChange Channel="16" Control="6" Value="12"/>
  </Event>
  <Event>
    <Absolute>0</Absolute>
    <ControlChange Channel="16" Control="38" Value="0"/>
  </Event>
  <Event>
    <Absolute>0</Absolute>
    <TimeSignature Numerator="4" LogDenominator="2" MIDIClocksPerMetronomeClick="24" ThirtySecondsPer24Clocks="8"/>
  </Event>
  <Event>
    <Absolute>0</Absolute>
    <SetTempo Value="500000"/>
  </Event>
  <Event>
    <Absolute>0</Absolute>
    <EndOfTrack/>
  </Event>
</Track>
<Track Number="1">
  <Event>
    <Absolute>0</Absolute>
    <PitchBendChange Channel="1" Value="8192"/>
  </Event>
  <Event>
    <Absolute>0</Absolute>
    <ControlChange Channel="1" Control="7" Value="104"/>
  </Event>
  <Event>
    <Absolute>0</Absolute>
    <ControlChange Channel="1" Control="10" Value="64"/>
  </Event>
  <Event>
    <Absolute>0</Absolute>
    <ControlChange Channel="1" Control="93" Value="0"/>
  </Event>
  <Event>
    <Absolute>0</Absolute>
    <ControlChange Channel="1" Control="91" Value="0"/>
  </Event>
  <Event>
    <Absolute>0</Absolute>
    <ControlChange Channel="1" Control="95" Value="0"/>
  </Event>
  <Event>
    <Absolute>0</Absolute>
    <ControlChange Channel="1" Control="92" Value="0"/>
  </Event>
  <Event>
    <Absolute>0</Absolute>
    <ControlChange Channel="1" Control="11" Value="127"/>
  </Event>
  <Event>
    <Absolute>0</Absolute>
    <ProgramChange Channel="1" Number="25"/>
  </Event>
  <Event>
    <Absolute>0</Absolute>
    <NoteOn Channel="1" Note="43" Velocity="64"/>
  </Event>
  <Event>
    <Absolute>3840</Absolute>
    <NoteOff Channel="1" Note="43" Velocity="64"/>
  </Event>
  <Event>
    <Absolute>3840</Absolute>
    <NoteOn Channel="1" Note="52" Velocity="64"/>
  </Event>
  <Event>
    <Absolute>5760</Absolute>
    <NoteOff Channel="1" Note="52" Velocity="64"/>
  </Event>
  <Event>
    <Absolute>5760</Absolute>
    <NoteOn Channel="1" Note="54" Velocity="64"/>
  </Event>
  <Event>
    <Absolute>7680</Absolute>
    <NoteOff Channel="1" Note="54" Velocity="64"/>
  </Event>
  <Event>
    <Absolute>7680</Absolute>
    <NoteOn Channel="1" Note="52" Velocity="64"/>
  </Event>
  <Event>
    <Absolute>8640</Absolute>
    <NoteOff Channel="1" Note="52" Velocity="64"/>
  </Event>
  <Event>
    <Absolute>8640</Absolute>
    <NoteOn Channel="1" Note="51" Velocity="64"/>
  </Event>
  <Event>
    <Absolute>9600</Absolute>
    <NoteOff Channel="1" Note="51" Velocity="64"/>
  </Event>
  <Event>
    <Absolute>9600</Absolute>
    <NoteOn Channel="1" Note="50" Velocity="64"/>
  </Event>
  <Event>
    <Absolute>10560</Absolute>
    <NoteOff Channel="1" Note="50" Velocity="64"/>
  </Event>
  <Event>
    <Absolute>10560</Absolute>
    <NoteOn Channel="1" Note="49" Velocity="64"/>
  </Event>
  <Event>
    <Absolute>11520</Absolute>
    <NoteOff Channel="1" Note="49" Velocity="64"/>
  </Event>
  <Event>
    <Absolute>11520</Absolute>
    <NoteOn Channel="1" Note="61" Velocity="64"/>
  </Event>
  <Event>
    <Absolute>12000</Absolute>
    <NoteOff Channel="1" Note="61" Velocity="64"/>
  </Event>
  <Event>
    <Absolute>12000</Absolute>
    <NoteOn Channel="1" Note="62" Velocity="64"/>
  </Event>
  <Event>
    <Absolute>12480</Absolute>
    <NoteOff Channel="1" Note="62" Velocity="64"/>
  </Event>
  <Event>
    <Absolute>12480</Absolute>
    <NoteOn Channel="1" Note="63" Velocity="64"/>
  </Event>
  <Event>
    <Absolute>12960</Absolute>
    <NoteOff Channel="1" Note="63" Velocity="64"/>
  </Event>
  <Event>
    <Absolute>12960</Absolute>
    <NoteOn Channel="1" Note="64" Velocity="64"/>
  </Event>
  <Event>
    <Absolute>13440</Absolute>
    <NoteOff Channel="1" Note="64" Velocity="64"/>
  </Event>
  <Event>
    <Absolute>13440</Absolute>
    <NoteOn Channel="1" Note="67" Velocity="64"/>
  </Event>
  <Event>
    <Absolute>13920</Absolute>
    <NoteOff Channel="1" Note="67" Velocity="64"/>
  </Event>
  <Event>
    <Absolute>13920</Absolute>
    <NoteOn Channel="1" Note="70" Velocity="64"/>
  </Event>
  <Event>
    <Absolute>14400</Absolute>
    <NoteOff Channel="1" Note="70" Velocity="64"/>
  </Event>
  <Event>
    <Absolute>14400</Absolute>
    <NoteOn Channel="1" Note="73" Velocity="64"/>
  </Event>
  <Event>
    <Absolute>14880</Absolute>
    <NoteOff Channel="1" Note="73" Velocity="64"/>
  </Event>
  <Event>
    <Absolute>14880</Absolute>
    <NoteOn Channel="1" Note="76" Velocity="64"/>
  </Event>
  <Event>
    <Absolute>15360</Absolute>
    <NoteOff Channel="1" Note="76" Velocity="64"/>
  </Event>
  <Event>
    <Absolute>15360</Absolute>
    <NoteOn Channel="1" Note="60" Velocity="64"/>
  </Event>
  <Event>
    <Absolute>15600</Absolute>
    <NoteOff Channel="1" Note="60" Velocity="64"/>
  </Event>
  <Event>
    <Absolute>15600</Absolute>
    <NoteOn Channel="1" Note="60" Velocity="64"/>
  </Event>
  <Event>
    <Absolute>15840</Absolute>
    <NoteOff Channel="1" Note="60" Velocity="64"/>
  </Event>
  <Event>
    <Absolute>15840</Absolute>
    <NoteOn Channel="1" Note="60" Velocity="64"/>
  </Event>
  <Event>
    <Absolute>16080</Absolute>
    <NoteOff Channel="1" Note="60" Velocity="64"/>
  </Event>
  <Event>
    <Absolute>16080</Absolute>
    <NoteOn Channel="1" Note="60" Velocity="64"/>
  </Event>
  <Event>
    <Absolute>16320</Absolute>
    <NoteOff Channel="1" Note="60" Velocity="64"/>
  </Event>
  <Event>
    <Absolute>16320</Absolute>
    <NoteOn Channel="1" Note="62" Velocity="64"/>
  </Event>
  <Event>
    <Absolute>16560</Absolute>
    <NoteOff Channel="1" Note="62" Velocity="64"/>
  </Event>
  <Event>
    <Absolute>16560</Absolute>
    <NoteOn Channel="1" Note="62" Velocity="64"/>
  </Event>
  <Event>
    <Absolute>16800</Absolute>
    <NoteOff Channel="1" Note="62" Velocity="64"/>
  </Event>
  <Event>
    <Absolute>16800</Absolute>
    <NoteOn Channel="1" Note="62" Velocity="64"/>
  </Event>
  <Event>
    <Absolute>17040</Absolute>
    <NoteOff Channel="1" Note="62" Velocity="64"/>
  </Event>
  <Event>
    <Absolute>17040</Absolute>
    <NoteOn Channel="1" Note="62" Velocity="64"/>
  </Event>
  <Event>
    <Absolute>17280</Absolute>
    <NoteOff Channel="1" Note="62" Velocity="64"/>
  </Event>
  <Event>
    <Absolute>17280</Absolute>
    <NoteOn Channel="1" Note="64" Velocity="64"/>
  </Event>
  <Event>
    <Absolute>17520</Absolute>
    <NoteOff Channel="1" Note="64" Velocity="64"/>
  </Event>
  <Event>
    <Absolute>17520</Absolute>
    <NoteOn Channel="1" Note="64" Velocity="64"/>
  </Event>
  <Event>
    <Absolute>17760</Absolute>
    <NoteOff Channel="1" Note="64" Velocity="64"/>
  </Event>
  <Event>
    <Absolute>17760</Absolute>
    <NoteOn Channel="1" Note="64" Velocity="64"/>
  </Event>
  <Event>
    <Absolute>18000</Absolute>
    <NoteOff Channel="1" Note="64" Velocity="64"/>
  </Event>
  <Event>
    <Absolute>18000</Absolute>
    <NoteOn Channel="1" Note="64" Velocity="64"/>
  </Event>
  <Event>
    <Absolute>18240</Absolute>
    <NoteOff Channel="1" Note="64" Velocity="64"/>
  </Event>
  <Event>
    <Absolute>18240</Absolute>
    <NoteOn Channel="1" Note="65" Velocity="64"/>
  </Event>
  <Event>
    <Absolute>18480</Absolute>
    <NoteOff Channel="1" Note="65" Velocity="64"/>
  </Event>
  <Event>
    <Absolute>18480</Absolute>
    <NoteOn Channel="1" Note="65" Velocity="64"/>
  </Event>
  <Event>
    <Absolute>18720</Absolute>
    <NoteOff Channel="1" Note="65" Velocity="64"/>
  </Event>
  <Event>
    <Absolute>18720</Absolute>
    <NoteOn Channel="1" Note="65" Velocity="64"/>
  </Event>
  <Event>
    <Absolute>18960</Absolute>
    <NoteOff Channel="1" Note="65" Velocity="64"/>
  </Event>
  <Event>
    <Absolute>18960</Absolute>
    <NoteOn Channel="1" Note="65" Velocity="64"/>
  </Event>
  <Event>
    <Absolute>19200</Absolute>
    <NoteOff Channel="1" Note="65" Velocity="64"/>
  </Event>
  <Event>
    <Absolute>19200</Absolute>
    <NoteOn Channel="1" Note="64" Velocity="64"/>
  </Event>
  <Event>
    <Absolute>19320</Absolute>
    <NoteOff Channel="1" Note="64" Velocity="64"/>
  </Event>
  <Event>
    <Absolute>19320</Absolute>
    <NoteOn Channel="1" Note="66" Velocity="64"/>
  </Event>
  <Event>
    <Absolute>19440</Absolute>
    <NoteOff Channel="1" Note="66" Velocity="64"/>
  </Event>
  <Event>
    <Absolute>19440</Absolute>
    <NoteOn Channel="1" Note="67" Velocity="64"/>
  </Event>
  <Event>
    <Absolute>19560</Absolute>
    <NoteOff Channel="1" Note="67" Velocity="64"/>
  </Event>
  <Event>
    <Absolute>19560</Absolute>
    <NoteOn Channel="1" Note="69" Velocity="64"/>
  </Event>
  <Event>
    <Absolute>19680</Absolute>
    <NoteOff Channel="1" Note="69" Velocity="64"/>
  </Event>
  <Event>
    <Absolute>19680</Absolute>
    <NoteOn Channel="1" Note="70" Velocity="64"/>
  </Event>
  <Event>
    <Absolute>19800</Absolute>
    <NoteOff Channel="1" Note="70" Velocity="64"/>
  </Event>
  <Event>
    <Absolute>19800</Absolute>
    <NoteOn Channel="1" Note="69" Velocity="64"/>
  </Event>
  <Event>
    <Absolute>19920</Absolute>
    <NoteOff Channel="1" Note="69" Velocity="64"/>
  </Event>
  <Event>
    <Absolute>19920</Absolute>
    <NoteOn Channel="1" Note="67" Velocity="64"/>
  </Event>
  <Event>
    <Absolute>20040</Absolute>
    <NoteOff Channel="1" Note="67" Velocity="64"/>
  </Event>
  <Event>
    <Absolute>20040</Absolute>
    <NoteOn Channel="1" Note="65" Velocity="64"/>
  </Event>
  <Event>
    <Absolute>20160</Absolute>
    <NoteOff Channel="1" Note="65" Velocity="64"/>
  </Event>
  <Event>
    <Absolute>20160</Absolute>
    <NoteOn Channel="1" Note="62" Velocity="64"/>
  </Event>
  <Event>
    <Absolute>20280</Absolute>
    <NoteOff Channel="1" Note="62" Velocity="64"/>
  </Event>
  <Event>
    <Absolute>20280</Absolute>
    <NoteOn Channel="1" Note="47" Velocity="64"/>
  </Event>
  <Event>
    <Absolute>20400</Absolute>
    <NoteOff Channel="1" Note="47" Velocity="64"/>
  </Event>
  <Event>
    <Absolute>20400</Absolute>
    <NoteOn Channel="1" Note="52" Velocity="64"/>
  </Event>
  <Event>
    <Absolute>20520</Absolute>
    <NoteOff Channel="1" Note="52" Velocity="64"/>
  </Event>
  <Event>
    <Absolute>20520</Absolute>
    <NoteOn Channel="1" Note="50" Velocity="64"/>
  </Event>
  <Event>
    <Absolute>20640</Absolute>
    <NoteOff Channel="1" Note="50" Velocity="64"/>
  </Event>
  <Event>
    <Absolute>20640</Absolute>
    <NoteOn Channel="1" Note="49" Velocity="64"/>
  </Event>
  <Event>
    <Absolute>20760</Absolute>
    <NoteOff Channel="1" Note="49" Velocity="64"/>
  </Event>
  <Event>
    <Absolute>20760</Absolute>
    <NoteOn Channel="1" Note="48" Velocity="64"/>
  </Event>
  <Event>
    <Absolute>20880</Absolute>
    <NoteOff Channel="1" Note="48" Velocity="64"/>
  </Event>
  <Event>
    <Absolute>20880</Absolute>
    <NoteOn Channel="1" Note="52" Velocity="64"/>
  </Event>
  <Event>
    <Absolute>21000</Absolute>
    <NoteOff Channel="1" Note="52" Velocity="64"/>
  </Event>
  <Event>
    <Absolute>21000</Absolute>
    <NoteOn Channel="1" Note="50" Velocity="64"/>
  </Event>
  <Event>
    <Absolute>21120</Absolute>
    <NoteOff Channel="1" Note="50" Velocity="64"/>
  </Event>
  <Event>
    <Absolute>21120</Absolute>
    <NoteOn Channel="1" Note="48" Velocity="64"/>
  </Event>
  <Event>
    <Absolute>21240</Absolute>
    <NoteOff Channel="1" Note="48" Velocity="64"/>
  </Event>
  <Event>
    <Absolute>21240</Absolute>
    <NoteOn Channel="1" Note="47" Velocity="64"/>
  </Event>
  <Event>
    <Absolute>21360</Absolute>
    <NoteOff Channel="1" Note="47" Velocity="64"/>
  </Event>
  <Event>
    <Absolute>21360</Absolute>
    <NoteOn Channel="1" Note="53" Velocity="64"/>
  </Event>
  <Event>
    <Absolute>21480</Absolute>
    <NoteOff Channel="1" Note="53" Velocity="64"/>
  </Event>
  <Event>
    <Absolute>21480</Absolute>
    <NoteOn Channel="1" Note="55" Velocity="64"/>
  </Event>
  <Event>
    <Absolute>21600</Absolute>
    <NoteOff Channel="1" Note="55" Velocity="64"/>
  </Event>
  <Event>
    <Absolute>21600</Absolute>
    <NoteOn Channel="1" Note="59" Velocity="64"/>
  </Event>
  <Event>
    <Absolute>21720</Absolute>
    <NoteOff Channel="1" Note="59" Velocity="64"/>
  </Event>
  <Event>
    <Absolute>21720</Absolute>
    <NoteOn Channel="1" Note="57" Velocity="64"/>
  </Event>
  <Event>
    <Absolute>21840</Absolute>
    <NoteOff Channel="1" Note="57" Velocity="64"/>
  </Event>
  <Event>
    <Absolute>21840</Absolute>
    <NoteOn Channel="1" Note="54" Velocity="64"/>
  </Event>
  <Event>
    <Absolute>21960</Absolute>
    <NoteOff Channel="1" Note="54" Velocity="64"/>
  </Event>
  <Event>
    <Absolute>21960</Absolute>
    <NoteOn Channel="1" Note="55" Velocity="64"/>
  </Event>
  <Event>
    <Absolute>22080</Absolute>
    <NoteOff Channel="1" Note="55" Velocity="64"/>
  </Event>
  <Event>
    <Absolute>22080</Absolute>
    <NoteOn Channel="1" Note="53" Velocity="64"/>
  </Event>
  <Event>
    <Absolute>22200</Absolute>
    <NoteOff Channel="1" Note="53" Velocity="64"/>
  </Event>
  <Event>
    <Absolute>22200</Absolute>
    <NoteOn Channel="1" Note="50" Velocity="64"/>
  </Event>
  <Event>
    <Absolute>22320</Absolute>
    <NoteOff Channel="1" Note="50" Velocity="64"/>
  </Event>
  <Event>
    <Absolute>22320</Absolute>
    <NoteOn Channel="1" Note="47" Velocity="64"/>
  </Event>
  <Event>
    <Absolute>22440</Absolute>
    <NoteOff Channel="1" Note="47" Velocity="64"/>
  </Event>
  <Event>
    <Absolute>22440</Absolute>
    <NoteOn Channel="1" Note="50" Velocity="64"/>
  </Event>
  <Event>
    <Absolute>22560</Absolute>
    <NoteOff Channel="1" Note="50" Velocity="64"/>
  </Event>
  <Event>
    <Absolute>22560</Absolute>
    <NoteOn Channel="1" Note="55" Velocity="64"/>
  </Event>
  <Event>
    <Absolute>22680</Absolute>
    <NoteOff Channel="1" Note="55" Velocity="64"/>
  </Event>
  <Event>
    <Absolute>22680</Absolute>
    <NoteOn Channel="1" Note="59" Velocity="64"/>
  </Event>
  <Event>
    <Absolute>22800</Absolute>
    <NoteOff Channel="1" Note="59" Velocity="64"/>
  </Event>
  <Event>
    <Absolute>22800</Absolute>
    <NoteOn Channel="1" Note="63" Velocity="64"/>
  </Event>
  <Event>
    <Absolute>22920</Absolute>
    <NoteOff Channel="1" Note="63" Velocity="64"/>
  </Event>
  <Event>
    <Absolute>22920</Absolute>
    <NoteOn Channel="1" Note="65" Velocity="64"/>
  </Event>
  <Event>
    <Absolute>23040</Absolute>
    <NoteOff Channel="1" Note="65" Velocity="64"/>
  </Event>
  <Event>
    <Absolute>23040</Absolute>
    <NoteOn Channel="1" Note="59" Velocity="64"/>
  </Event>
  <Event>
    <Absolute>23100</Absolute>
    <NoteOff Channel="1" Note="59" Velocity="64"/>
  </Event>
  <Event>
    <Absolute>23100</Absolute>
    <NoteOn Channel="1" Note="60" Velocity="64"/>
  </Event>
  <Event>
    <Absolute>23160</Absolute>
    <NoteOff Channel="1" Note="60" Velocity="64"/>
  </Event>
  <Event>
    <Absolute>23160</Absolute>
    <NoteOn Channel="1" Note="64" Velocity="64"/>
  </Event>
  <Event>
    <Absolute>23220</Absolute>
    <NoteOff Channel="1" Note="64" Velocity="64"/>
  </Event>
  <Event>
    <Absolute>23220</Absolute>
    <NoteOn Channel="1" Note="57" Velocity="64"/>
  </Event>
  <Event>
    <Absolute>23280</Absolute>
    <NoteOff Channel="1" Note="57" Velocity="64"/>
  </Event>
  <Event>
    <Absolute>23280</Absolute>
    <NoteOn Channel="1" Note="67" Velocity="64"/>
  </Event>
  <Event>
    <Absolute>23340</Absolute>
    <NoteOff Channel="1" Note="67" Velocity="64"/>
  </Event>
  <Event>
    <Absolute>23340</Absolute>
    <NoteOn Channel="1" Note="62" Velocity="64"/>
  </Event>
  <Event>
    <Absolute>23400</Absolute>
    <NoteOff Channel="1" Note="62" Velocity="64"/>
  </Event>
  <Event>
    <Absolute>23400</Absolute>
    <NoteOn Channel="1" Note="69" Velocity="64"/>
  </Event>
  <Event>
    <Absolute>23460</Absolute>
    <NoteOff Channel="1" Note="69" Velocity="64"/>
  </Event>
  <Event>
    <Absolute>23460</Absolute>
    <NoteOn Channel="1" Note="65" Velocity="64"/>
  </Event>
  <Event>
    <Absolute>23520</Absolute>
    <NoteOff Channel="1" Note="65" Velocity="64"/>
  </Event>
  <Event>
    <Absolute>23520</Absolute>
    <NoteOn Channel="1" Note="53" Velocity="64"/>
  </Event>
  <Event>
    <Absolute>23580</Absolute>
    <NoteOff Channel="1" Note="53" Velocity="64"/>
  </Event>
  <Event>
    <Absolute>23580</Absolute>
    <NoteOn Channel="1" Note="55" Velocity="64"/>
  </Event>
  <Event>
    <Absolute>23640</Absolute>
    <NoteOff Channel="1" Note="55" Velocity="64"/>
  </Event>
  <Event>
    <Absolute>23640</Absolute>
    <NoteOn Channel="1" Note="48" Velocity="64"/>
  </Event>
  <Event>
    <Absolute>23700</Absolute>
    <NoteOff Channel="1" Note="48" Velocity="64"/>
  </Event>
  <Event>
    <Absolute>23700</Absolute>
    <NoteOn Channel="1" Note="50" Velocity="64"/>
  </Event>
  <Event>
    <Absolute>23760</Absolute>
    <NoteOff Channel="1" Note="50" Velocity="64"/>
  </Event>
  <Event>
    <Absolute>23760</Absolute>
    <NoteOn Channel="1" Note="45" Velocity="64"/>
  </Event>
  <Event>
    <Absolute>23820</Absolute>
    <NoteOff Channel="1" Note="45" Velocity="64"/>
  </Event>
  <Event>
    <Absolute>23820</Absolute>
    <NoteOn Channel="1" Note="47" Velocity="64"/>
  </Event>
  <Event>
    <Absolute>23880</Absolute>
    <NoteOff Channel="1" Note="47" Velocity="64"/>
  </Event>
  <Event>
    <Absolute>23880</Absolute>
    <NoteOn Channel="1" Note="41" Velocity="64"/>
  </Event>
  <Event>
    <Absolute>23940</Absolute>
    <NoteOff Channel="1" Note="41" Velocity="64"/>
  </Event>
  <Event>
    <Absolute>23940</Absolute>
    <NoteOn Channel="1" Note="43" Velocity="64"/>
  </Event>
  <Event>
    <Absolute>24000</Absolute>
    <NoteOff Channel="1" Note="43" Velocity="64"/>
  </Event>
  <Event>
    <Absolute>24000</Absolute>
    <NoteOn Channel="1" Note="60" Velocity="95"/>
  </Event>
  <Event>
    <Absolute>25920</Absolute>
    <NoteOff Channel="1" Note="60" Velocity="95"/>
  </Event>
  <Event>
    <Absolute>25920</Absolute>
    <NoteOn Channel="1" Note="47" Velocity="64"/>
  </Event>
  <Event>
    <Absolute>26880</Absolute>
    <NoteOff Channel="1" Note="47" Velocity="64"/>
  </Event>
  <Event>
    <Absolute>26880</Absolute>
    <EndOfTrack/>
  </Event>
</Track>
</MIDIFile>